<svg xmlns="http://www.w3.org/2000/svg" viewBox="0 0 64 64">
  <defs>
    <linearGradient id="g1" x1="0%" y1="0%" x2="100%" y2="100%">
      <stop offset="0%" stop-color="#6366f1"/>
      <stop offset="100%" stop-color="#8b5cf6"/>
    </linearGradient>
    <linearGradient id="g2" x1="0%" y1="0%" x2="100%" y2="100%">
      <stop offset="0%" stop-color="#818cf8"/>
      <stop offset="100%" stop-color="#a78bfa"/>
    </linearGradient>
    <filter id="shadow">
      <feDropShadow dx="0" dy="2" stdDeviation="2" flood-color="#6366f1" flood-opacity="0.3"/>
    </filter>
  </defs>
  <!-- 3D hexagon base (back face) -->
  <polygon points="32,4 56,18 56,46 32,60 8,46 8,18" fill="url(#g1)" filter="url(#shadow)"/>
  <!-- 3D hexagon top face -->
  <polygon points="32,2 54,15 54,41 32,54 10,41 10,15" fill="url(#g2)" opacity="0.9"/>
  <!-- Inner circuit lines -->
  <path d="M32 14 L32 28 M24 20 L40 20 M20 32 L44 32 M24 44 L40 44 M32 36 L32 50" stroke="white" stroke-width="2" stroke-linecap="round" opacity="0.7"/>
  <!-- AI brain dot pattern -->
  <circle cx="32" cy="28" r="3" fill="white" opacity="0.9"/>
  <circle cx="24" cy="20" r="2" fill="white" opacity="0.7"/>
  <circle cx="40" cy="20" r="2" fill="white" opacity="0.7"/>
  <circle cx="20" cy="32" r="2" fill="white" opacity="0.6"/>
  <circle cx="44" cy="32" r="2" fill="white" opacity="0.6"/>
  <circle cx="32" cy="36" r="2.5" fill="white" opacity="0.8"/>
</svg>
